<svg width="60" height="74" viewBox="0 0 60 74" fill="none" xmlns="http://www.w3.org/2000/svg">
<rect width="60" height="60" rx="30" fill="url(#paint0_linear_1_3428)"/>
<path d="M5.75198 72V64.7273H6.84928V67.8878H10.475V64.7273H11.5758V72H10.475V68.8288H6.84928V72H5.75198ZM15.3862 72.1101C14.8748 72.1101 14.4286 71.9929 14.0474 71.7585C13.6663 71.5241 13.3703 71.1963 13.1596 70.7749C12.9489 70.3535 12.8436 69.861 12.8436 69.2976C12.8436 68.7318 12.9489 68.237 13.1596 67.8132C13.3703 67.3894 13.6663 67.0604 14.0474 66.826C14.4286 66.5916 14.8748 66.4744 15.3862 66.4744C15.8976 66.4744 16.3438 66.5916 16.725 66.826C17.1061 67.0604 17.4021 67.3894 17.6128 67.8132C17.8235 68.237 17.9288 68.7318 17.9288 69.2976C17.9288 69.861 17.8235 70.3535 17.6128 70.7749C17.4021 71.1963 17.1061 71.5241 16.725 71.7585C16.3438 71.9929 15.8976 72.1101 15.3862 72.1101ZM15.3898 71.2188C15.7212 71.2188 15.9958 71.1312 16.2136 70.956C16.4314 70.7808 16.5924 70.5476 16.6966 70.2564C16.8031 69.9652 16.8564 69.6444 16.8564 69.294C16.8564 68.946 16.8031 68.6264 16.6966 68.3352C16.5924 68.0417 16.4314 67.8061 16.2136 67.6286C15.9958 67.451 15.7212 67.3622 15.3898 67.3622C15.056 67.3622 14.779 67.451 14.5588 67.6286C14.341 67.8061 14.1788 68.0417 14.0723 68.3352C13.9681 68.6264 13.916 68.946 13.916 69.294C13.916 69.6444 13.9681 69.9652 14.0723 70.2564C14.1788 70.5476 14.341 70.7808 14.5588 70.956C14.779 71.1312 15.056 71.2188 15.3898 71.2188ZM20.1758 64.7273V72H19.114V64.7273H20.1758ZM23.6462 72.1065C23.2058 72.1065 22.8128 71.9941 22.4672 71.7692C22.1239 71.5419 21.854 71.2187 21.6575 70.7997C21.4634 70.3783 21.3663 69.8729 21.3663 69.2834C21.3663 68.6939 21.4646 68.1896 21.6611 67.7706C21.8599 67.3516 22.1322 67.0308 22.4778 66.8082C22.8235 66.5857 23.2153 66.4744 23.6533 66.4744C23.9918 66.4744 24.2641 66.5312 24.47 66.6449C24.6784 66.7562 24.8393 66.8864 24.953 67.0355C25.069 67.1847 25.1589 67.3161 25.2229 67.4297H25.2868V64.7273H26.3486V72H25.3116V71.1513H25.2229C25.1589 71.2673 25.0666 71.3999 24.9459 71.549C24.8275 71.6982 24.6641 71.8284 24.4558 71.9396C24.2475 72.0509 23.9776 72.1065 23.6462 72.1065ZM23.8805 71.201C24.1859 71.201 24.444 71.1205 24.6547 70.9595C24.8677 70.7962 25.0287 70.5701 25.1376 70.2812C25.2489 69.9924 25.3045 69.6562 25.3045 69.2727C25.3045 68.8939 25.2501 68.5625 25.1412 68.2784C25.0323 67.9943 24.8725 67.773 24.6618 67.6143C24.4511 67.4557 24.1907 67.3764 23.8805 67.3764C23.5609 67.3764 23.2946 67.4593 23.0815 67.625C22.8685 67.7907 22.7075 68.0168 22.5986 68.3033C22.492 68.5897 22.4388 68.9129 22.4388 69.2727C22.4388 69.6373 22.4932 69.9652 22.6021 70.2564C22.711 70.5476 22.872 70.7784 23.0851 70.9489C23.3005 71.117 23.5657 71.201 23.8805 71.201ZM32.627 72.103C32.1393 72.103 31.7191 72.0142 31.3663 71.8366C31.0159 71.6591 30.7461 71.4176 30.5567 71.1122C30.3673 70.8045 30.2726 70.4564 30.2726 70.0682C30.2726 69.7723 30.3341 69.5095 30.4572 69.2798C30.5803 69.0478 30.752 68.8336 30.9721 68.6371C31.1923 68.4406 31.4468 68.2429 31.7356 68.044L32.9075 67.2166C33.1064 67.0864 33.2614 66.9491 33.3727 66.8047C33.484 66.6579 33.5396 66.4768 33.5396 66.2614C33.5396 66.0909 33.4662 65.9276 33.3194 65.7713C33.1727 65.6151 32.9762 65.5369 32.73 65.5369C32.5595 65.5369 32.4092 65.5784 32.279 65.6612C32.1511 65.7441 32.0505 65.8506 31.9771 65.9808C31.9061 66.1087 31.8706 66.2436 31.8706 66.3857C31.8706 66.5514 31.9156 66.7183 32.0055 66.8864C32.0979 67.0545 32.2162 67.2285 32.3606 67.4084C32.5051 67.5859 32.6566 67.7706 32.8152 67.9624L36.1923 72H34.992L32.1973 68.7152C31.9629 68.4382 31.7451 68.1778 31.5439 67.9339C31.3427 67.6877 31.1793 67.4392 31.0538 67.1882C30.9307 66.9349 30.8692 66.6615 30.8692 66.3679C30.8692 66.0341 30.9449 65.7382 31.0964 65.4801C31.2503 65.2197 31.4646 65.0161 31.7392 64.8693C32.0138 64.7225 32.3358 64.6491 32.7051 64.6491C33.0792 64.6491 33.3999 64.7225 33.6675 64.8693C33.9373 65.0137 34.1445 65.2067 34.2889 65.4482C34.4357 65.6873 34.5091 65.9489 34.5091 66.233C34.5091 66.5786 34.4227 66.884 34.2498 67.1491C34.0794 67.4119 33.8438 67.6534 33.5432 67.8736L32.0837 68.9496C31.7996 69.1579 31.6019 69.3639 31.4906 69.5675C31.3817 69.7687 31.3273 69.9261 31.3273 70.0398C31.3273 70.2481 31.3805 70.4411 31.4871 70.6186C31.596 70.7962 31.7475 70.9382 31.9416 71.0447C32.1381 71.1513 32.3677 71.2045 32.6305 71.2045C32.9004 71.2045 33.1632 71.1465 33.4189 71.0305C33.6769 70.9122 33.9101 70.7429 34.1185 70.5227C34.3292 70.3026 34.4961 70.0386 34.6192 69.7308C34.7423 69.4231 34.8038 69.0786 34.8038 68.6974H35.7626C35.7626 69.1662 35.7094 69.5627 35.6028 69.8871C35.4963 70.209 35.3673 70.4718 35.2158 70.6754C35.0666 70.8767 34.9257 71.0341 34.7932 71.1477C34.7506 71.1856 34.7103 71.2235 34.6724 71.2614C34.6346 71.2992 34.5943 71.3371 34.5517 71.375C34.3055 71.6236 34.0072 71.8071 33.6568 71.9254C33.3088 72.0438 32.9655 72.103 32.627 72.103ZM40.3702 72H39.2055L41.8226 64.7273H43.0904L45.7076 72H44.5428L42.4867 66.0483H42.4299L40.3702 72ZM40.5655 69.152H44.344V70.0753H40.5655V69.152ZM50.7209 67.8771L49.7585 68.0476C49.7183 67.9245 49.6544 67.8073 49.5668 67.696C49.4816 67.5848 49.3656 67.4936 49.2188 67.4226C49.072 67.3516 48.8885 67.3161 48.6683 67.3161C48.3677 67.3161 48.1167 67.3835 47.9155 67.5185C47.7143 67.651 47.6137 67.8227 47.6137 68.0334C47.6137 68.2157 47.6811 68.3625 47.8161 68.4737C47.951 68.585 48.1688 68.6761 48.4695 68.7472L49.336 68.946C49.8379 69.062 50.2119 69.2408 50.4581 69.4822C50.7043 69.7237 50.8274 70.0374 50.8274 70.4233C50.8274 70.75 50.7327 71.0412 50.5433 71.2969C50.3563 71.5502 50.0947 71.7491 49.7585 71.8935C49.4247 72.0379 49.0377 72.1101 48.5973 72.1101C47.9865 72.1101 47.4882 71.9799 47.1023 71.7195C46.7164 71.4567 46.4797 71.0838 46.3921 70.6009L47.4183 70.4446C47.4823 70.7121 47.6137 70.9145 47.8125 71.0518C48.0114 71.1868 48.2706 71.2543 48.5902 71.2543C48.9382 71.2543 49.2164 71.1821 49.4247 71.0376C49.6331 70.8909 49.7372 70.7121 49.7372 70.5014C49.7372 70.331 49.6733 70.1877 49.5455 70.0717C49.42 69.9557 49.2271 69.8681 48.9666 69.8089L48.0433 69.6065C47.5344 69.4905 47.1579 69.3059 46.9141 69.0526C46.6726 68.7992 46.5519 68.4785 46.5519 68.0902C46.5519 67.7682 46.6418 67.4865 46.8218 67.245C47.0017 67.0036 47.2503 66.8153 47.5675 66.6804C47.8847 66.5431 48.2481 66.4744 48.6577 66.4744C49.2472 66.4744 49.7112 66.6023 50.0497 66.858C50.3883 67.1113 50.612 67.451 50.7209 67.8771ZM52.9714 70.1499L52.9643 68.8537H53.149L55.3223 66.5455H56.5936L54.1149 69.1733H53.948L52.9714 70.1499ZM51.9949 72V64.7273H53.0567V72H51.9949ZM55.4395 72L53.4864 69.4077L54.2179 68.6655L56.7427 72H55.4395Z" fill="url(#paint1_linear_1_3428)"/>
<g filter="url(#filter0_d_1_3428)">
<path d="M39.2002 29.1584C39.2002 28.598 38.7489 28.1467 38.1885 28.1467C37.6281 28.1467 37.1769 28.598 37.1769 29.1584C37.1769 32.6298 34.003 35.4516 30.1001 35.4516C26.1973 35.4516 23.0234 32.6298 23.0234 29.1584C23.0234 28.598 22.5721 28.1467 22.0118 28.1467C21.4514 28.1467 21.0001 28.598 21.0001 29.1584C21.0001 33.4332 24.5459 36.9641 29.0885 37.4253V40.2768H27.9181C27.3577 40.2768 26.9064 40.7281 26.9064 41.2885C26.9064 41.8489 27.3577 42.3002 27.9181 42.3002H32.2822C32.8426 42.3002 33.2938 41.8489 33.2938 41.2885C33.2938 40.7281 32.8426 40.2768 32.2822 40.2768H31.1118V37.4253C35.6544 36.9641 39.2002 33.4332 39.2002 29.1584Z" fill="white"/>
<path d="M30.1004 33.4974C32.6296 33.4974 34.6777 31.4492 34.6777 28.9201V22.5773C34.6777 20.0481 32.6296 18 30.1004 18C27.5712 18 25.5231 20.0481 25.5231 22.5773V28.9201C25.5231 31.4492 27.5712 33.4974 30.1004 33.4974ZM27.5068 22.5773C27.5068 21.1491 28.6722 19.9837 30.1004 19.9837C31.5286 19.9837 32.694 21.1491 32.694 22.5773V28.9201C32.694 30.3483 31.5286 31.5137 30.1004 31.5137C28.6722 31.5137 27.5068 30.3483 27.5068 28.9201V22.5773Z" fill="white"/>
</g>
<defs>
<filter id="filter0_d_1_3428" x="4.20009" y="9.6" width="51.8001" height="57.9" filterUnits="userSpaceOnUse" color-interpolation-filters="sRGB">
<feFlood flood-opacity="0" result="BackgroundImageFix"/>
<feColorMatrix in="SourceAlpha" type="matrix" values="0 0 0 0 0 0 0 0 0 0 0 0 0 0 0 0 0 0 127 0" result="hardAlpha"/>
<feOffset dy="8.4"/>
<feGaussianBlur stdDeviation="8.4"/>
<feComposite in2="hardAlpha" operator="out"/>
<feColorMatrix type="matrix" values="0 0 0 0 0.133333 0 0 0 0 0.188235 0 0 0 0 0.290196 0 0 0 0.06 0"/>
<feBlend mode="normal" in2="BackgroundImageFix" result="effect1_dropShadow_1_3428"/>
<feBlend mode="normal" in="SourceGraphic" in2="effect1_dropShadow_1_3428" result="shape"/>
</filter>
<linearGradient id="paint0_linear_1_3428" x1="30" y1="-8.99999" x2="68.1155" y2="30.3298" gradientUnits="userSpaceOnUse">
<stop stop-color="#DE58F9"/>
<stop offset="0.445" stop-color="#562295"/>
<stop offset="1" stop-color="#3088EC"/>
</linearGradient>
<linearGradient id="paint1_linear_1_3428" x1="30.9002" y1="60.2" x2="34.1491" y2="74.7271" gradientUnits="userSpaceOnUse">
<stop stop-color="#DE58F9"/>
<stop offset="0.445" stop-color="#562295"/>
<stop offset="1" stop-color="#3088EC"/>
</linearGradient>
</defs>
</svg>
