<svg width="17" height="16" viewBox="0 0 17 16" fill="none" xmlns="http://www.w3.org/2000/svg">
<path d="M8.33331 2C8.82777 2 9.31112 2.14662 9.72224 2.42133C10.1334 2.69603 10.4538 3.08648 10.643 3.54329C10.8322 4.00011 10.8817 4.50277 10.7853 4.98773C10.6888 5.47268 10.4507 5.91814 10.1011 6.26777C9.75145 6.6174 9.30599 6.8555 8.82104 6.95196C8.33609 7.04843 7.83342 6.99892 7.3766 6.8097C6.91979 6.62048 6.52934 6.30005 6.25464 5.88893C5.97994 5.4778 5.83331 4.99445 5.83331 4.5C5.83331 3.83696 6.0967 3.20107 6.56555 2.73223C7.03439 2.26339 7.67027 2 8.33331 2ZM8.33331 1C7.64108 1 6.96439 1.20527 6.38882 1.58986C5.81324 1.97444 5.36464 2.52107 5.09973 3.16061C4.83483 3.80015 4.76552 4.50388 4.90056 5.18282C5.03561 5.86175 5.36896 6.48539 5.85844 6.97487C6.34792 7.46436 6.97156 7.7977 7.6505 7.93275C8.32943 8.0678 9.03316 7.99848 9.6727 7.73358C10.3122 7.46867 10.8589 7.02007 11.2435 6.4445C11.628 5.86892 11.8333 5.19223 11.8333 4.5C11.8333 3.57174 11.4646 2.6815 10.8082 2.02513C10.1518 1.36875 9.26157 1 8.33331 1Z" fill="black"/>
<path d="M13.3333 15H12.3333V12.5C12.3333 12.1717 12.2686 11.8466 12.143 11.5433C12.0174 11.24 11.8332 10.9644 11.6011 10.7322C11.3689 10.5001 11.0933 10.3159 10.79 10.1903C10.4867 10.0647 10.1616 10 9.83331 10H6.83331C6.17027 10 5.53439 10.2634 5.06555 10.7322C4.59671 11.2011 4.33331 11.837 4.33331 12.5V15H3.33331V12.5C3.33331 11.5717 3.70206 10.6815 4.35844 10.0251C5.01482 9.36875 5.90506 9 6.83331 9H9.83331C10.7616 9 11.6518 9.36875 12.3082 10.0251C12.9646 10.6815 13.3333 11.5717 13.3333 12.5V15Z" fill="black"/>
</svg>
