<svg width="11" height="10" viewBox="0 0 11 10" fill="none" xmlns="http://www.w3.org/2000/svg">
<path d="M5.20511 1.80548L5.6264 2.46665L6.04824 1.80584C6.86421 0.527625 7.96321 0.310889 8.83068 0.649463C9.7328 1.00157 10.5 1.99799 10.5 3.38856C10.5 3.83269 10.2634 4.41059 9.81137 5.08176C9.36916 5.7384 8.76581 6.41923 8.13376 7.0555C7.50382 7.68966 6.85723 8.26779 6.33569 8.72022C6.14836 8.88273 5.97884 9.02758 5.8311 9.15382C5.77267 9.20375 5.71764 9.25077 5.66627 9.29482C5.65158 9.30741 5.63703 9.3199 5.62266 9.33224C5.60544 9.31796 5.58799 9.30352 5.57038 9.28897C5.49547 9.22707 5.41446 9.16057 5.32704 9.08882C5.19102 8.97717 5.03949 8.85279 4.87134 8.7132C4.32569 8.26021 3.64733 7.68167 2.98558 7.04702C2.32157 6.41018 1.68712 5.72895 1.22204 5.07211C0.745653 4.39932 0.5 3.82503 0.5 3.38856C0.5 2.00512 1.31303 1.00133 2.28768 0.6441C3.23669 0.296273 4.3983 0.539252 5.20511 1.80548Z" stroke="#ECECF2"/>
</svg>
